<?xml version="1.0" encoding="utf-8"?>
<!-- Generator: Adobe Illustrator 25.1.0, SVG Export Plug-In . SVG Version: 6.00 Build 0)  -->
<svg version="1.1" id="Layer_1" xmlns="http://www.w3.org/2000/svg" xmlns:xlink="http://www.w3.org/1999/xlink" x="0px" y="0px"
	 viewBox="0 0 829.56 536.3" style="enable-background:new 0 0 829.56 536.3;" xml:space="preserve">
<style type="text/css">
	.st0{fill:#FFFFFF;}
</style>
<g>
	<path class="st0" d="M719.22,336.04l0.01,1.76l-0.18,1.76c-1.68,16.59-8.08,31.51-19.03,44.36c-9.22,10.81-21.56,19.88-36.71,26.97
		c-21.41,10.03-48.63,16.25-80.91,18.52c-8.92,0.63-18.22,0.93-27.8,0.93c-90.95,0-197.47-38.32-253.67-78.75l-14.22-9.52
		c-2.56-1.72-5.15-3.51-7.75-5.38l-25.96,67.27H76.99l80.04-207.42c-14.42-26.3-25.53-53.79-31.44-81.05
		c-1.46-6.75-1.83-13.69-1.05-20.55l8.04-70.74l48.31,52.04c59.7,64.34,101.17,107.99,141.07,138.16l58.28-28.22h237.99
		c1.73,0,3.46,0.05,5.18,0.18c5.74,0.43,11.25,0.95,16.45,1.53c18.67,2.05,37.69,5.24,53.55,9.01
		c25.01,5.94,34.16,11.24,39.33,15.22l19.83,15.2l-35.65,92.4C718.61,325.62,719.21,331.19,719.22,336.04z"/>
	<path d="M230.1,370.57H125.66l55.34-143.42c0,0,23.21,35.35,75.03,76.22L230.1,370.57L230.1,370.57z"/>
	<path d="M491.72,219.57l-53.55,134.44c52.09,19.29,131.33,18.95,143.93,0.84c9.52-13.69,2.73-27.19-28.86-38.28
		c-66.36-22.87-55.05-57.72-55.05-57.72c11.9-66.35,196.38-33.92,214.24-20.23l-17.07,44.23c-17.06-50.58-95.21-39.47-95.41-18.25
		c-4.76,29.06,85.69,29.66,85.89,71.61c-9.12,90.16-252.81,69.33-345.5,6.69l20.98-52.67l-56.01,24.1
		c-58.24-39.03-134.81-129.68-148.9-215.37c65.96,71.06,112.97,120.9,162.26,154.13l69.23-33.52H491.72L491.72,219.57z"/>
</g>
</svg>
